HIERARCHY
ROOT Bone
{
	OFFSET 0.000000 0.000000 0.000000
	CHANNELS 6 Xposition Yposition Zposition Xrotation Yrotation Zrotation
	JOINT Bone.001
	{
		OFFSET 0.002685 0.000000 0.204027
		CHANNELS 3 Xrotation Yrotation Zrotation
		JOINT Bone.002
		{
			OFFSET 0.000000 0.000000 0.198658
			CHANNELS 3 Xrotation Yrotation Zrotation
			JOINT Bone.003
			{
				OFFSET -0.005369 0.000000 0.198658
				CHANNELS 3 Xrotation Yrotation Zrotation
				End Site
				{
					OFFSET -0.002685 0.000000 0.198658
				}
			}
		}
	}
}
MOTION
Frames: 50
Frame Time: 0.041667
0.000000 0.000000 0.000000 0.000000 -37.207922 0.000000 0.000000 21.635378 0.000000 0.000000 0.875224 0.000000 0.000000 -0.875224 0.000000 
0.000000 0.000000 0.000000 0.000000 -37.042475 0.000000 0.000000 22.345155 0.000000 0.000000 -0.875224 0.000000 0.000000 0.875224 0.000000 
0.000000 0.000000 0.000000 0.000000 -35.340107 0.000000 0.000000 19.767563 0.000000 0.000000 0.875224 0.000000 0.000000 0.000000 0.000000 
0.000000 0.000000 0.000000 0.000000 -34.854456 0.000000 0.000000 20.384161 0.000000 0.000000 0.000000 0.000000 0.000000 -0.862991 0.000000 
0.000000 0.000000 0.000000 0.000000 -34.159695 0.000000 0.000000 19.284013 0.000000 0.000000 0.000000 0.000000 0.000000 0.839439 0.000000 
0.000000 0.000000 0.000000 0.000000 -33.917431 0.000000 0.000000 19.881187 0.000000 0.000000 0.000000 0.000000 0.000000 -0.839439 0.000000 
0.000000 0.000000 0.000000 0.000000 -33.917431 0.000000 0.000000 19.881187 0.000000 0.000000 0.000000 0.000000 0.000000 -0.839439 0.000000 
0.000000 0.000000 0.000000 0.000000 -33.023868 0.000000 0.000000 18.579832 0.000000 0.000000 0.000000 0.000000 0.000000 0.000000 0.000000 
0.000000 0.000000 0.000000 0.000000 -32.592581 0.000000 0.000000 17.337463 0.000000 0.000000 0.811083 0.000000 0.000000 0.000000 0.000000 
0.000000 0.000000 0.000000 0.000000 -32.592581 0.000000 0.000000 17.337463 0.000000 0.000000 0.811083 0.000000 0.000000 0.000000 0.000000 
0.000000 0.000000 0.000000 0.000000 -32.171217 0.000000 0.000000 16.916098 0.000000 0.000000 0.811083 0.000000 0.000000 -0.811083 0.000000 
0.000000 0.000000 0.000000 0.000000 -32.171217 0.000000 0.000000 16.560229 0.000000 0.000000 1.574745 0.000000 0.000000 -2.353297 0.000000 
0.000000 0.000000 0.000000 0.000000 -31.759480 0.000000 0.000000 16.148492 0.000000 0.000000 0.784509 0.000000 0.000000 -0.784509 0.000000 
0.000000 0.000000 0.000000 0.000000 -31.357085 0.000000 0.000000 15.746097 0.000000 0.000000 0.000000 0.000000 0.000000 0.000000 0.000000 
0.000000 0.000000 0.000000 0.000000 -31.759480 0.000000 0.000000 16.721664 0.000000 0.000000 -0.794571 0.000000 0.000000 -0.788370 0.000000 
0.000000 0.000000 0.000000 0.000000 -31.357085 0.000000 0.000000 15.746097 0.000000 0.000000 0.000000 0.000000 0.000000 -1.550930 0.000000 
0.000000 0.000000 0.000000 0.000000 -30.203238 0.000000 0.000000 13.582481 0.000000 0.000000 0.788370 0.000000 0.000000 -1.570318 0.000000 
0.000000 0.000000 0.000000 0.000000 -31.504267 0.000000 0.000000 15.444279 0.000000 0.000000 0.804869 0.000000 0.000000 -2.395006 0.000000 
0.000000 0.000000 0.000000 0.000000 -30.963757 0.000000 0.000000 15.131370 0.000000 0.000000 0.000000 0.000000 0.000000 -2.345632 0.000000 
0.000000 0.000000 0.000000 0.000000 -30.699723 0.000000 0.000000 14.867336 0.000000 0.000000 -0.788370 0.000000 0.000000 -1.557262 0.000000 
0.000000 0.000000 0.000000 0.000000 -31.097313 0.000000 0.000000 15.037326 0.000000 0.000000 0.000000 0.000000 0.000000 -2.374962 0.000000 
0.000000 0.000000 0.000000 0.000000 -31.097313 0.000000 0.000000 14.803265 0.000000 0.000000 0.815409 0.000000 0.000000 -2.425809 0.000000 
0.000000 0.000000 0.000000 0.000000 -32.092591 0.000000 0.000000 16.383953 0.000000 0.000000 0.000000 0.000000 0.000000 -2.457319 0.000000 
0.000000 0.000000 0.000000 0.000000 -32.092591 0.000000 0.000000 16.383953 0.000000 0.000000 0.000000 0.000000 0.000000 -2.457319 0.000000 
0.000000 0.000000 0.000000 0.000000 -32.092591 0.000000 0.000000 16.759307 0.000000 0.000000 -0.855921 0.000000 0.000000 -1.689490 0.000000 
0.000000 0.000000 0.000000 0.000000 -32.988522 0.000000 0.000000 18.057104 0.000000 0.000000 -0.887777 0.000000 0.000000 -1.752065 0.000000 
0.000000 0.000000 0.000000 0.000000 -32.092591 0.000000 0.000000 16.919676 0.000000 0.000000 0.000000 0.000000 0.000000 -1.793233 0.000000 
0.000000 0.000000 0.000000 0.000000 -32.005383 0.000000 0.000000 16.832468 0.000000 0.000000 -0.900659 0.000000 0.000000 0.000000 0.000000 
0.000000 0.000000 0.000000 0.000000 -30.677280 0.000000 0.000000 15.933717 0.000000 0.000000 0.000000 0.000000 0.000000 -0.935961 0.000000 
0.000000 0.000000 0.000000 0.000000 -29.219247 0.000000 0.000000 14.475684 0.000000 0.000000 0.000000 0.000000 0.000000 0.000000 0.000000 
0.000000 0.000000 0.000000 0.000000 -28.474204 0.000000 0.000000 14.674718 0.000000 0.000000 -0.944077 0.000000 0.000000 0.944077 0.000000 
0.000000 0.000000 0.000000 0.000000 -27.349876 0.000000 0.000000 14.001149 0.000000 0.000000 0.000000 0.000000 0.000000 -0.915785 0.000000 
0.000000 0.000000 0.000000 0.000000 -24.655899 0.000000 0.000000 11.521876 0.000000 0.000000 0.000000 0.000000 0.000000 -0.902221 0.000000 
0.000000 0.000000 0.000000 0.000000 -23.085134 0.000000 0.000000 10.360778 0.000000 0.000000 0.000000 0.000000 0.000000 -0.876187 0.000000 
0.000000 0.000000 0.000000 0.000000 -20.854458 0.000000 0.000000 8.515371 0.000000 0.000000 0.000000 0.000000 0.000000 -0.851523 0.000000 
0.000000 0.000000 0.000000 0.000000 -18.946505 0.000000 0.000000 7.803615 0.000000 0.000000 -0.833243 0.000000 0.000000 -1.650862 0.000000 
0.000000 0.000000 0.000000 0.000000 -17.684392 0.000000 0.000000 7.530125 0.000000 0.000000 -1.648168 0.000000 0.000000 -0.816888 0.000000 
0.000000 0.000000 0.000000 0.000000 -17.161919 0.000000 0.000000 8.104031 0.000000 0.000000 -1.611895 0.000000 0.000000 -1.594991 0.000000 
0.000000 0.000000 0.000000 0.000000 -16.927513 0.000000 0.000000 8.681192 0.000000 0.000000 -0.811567 0.000000 0.000000 -3.206886 0.000000 
0.000000 0.000000 0.000000 0.000000 -16.699244 0.000000 0.000000 8.452923 0.000000 0.000000 0.000000 0.000000 0.000000 -3.223210 0.000000 
0.000000 0.000000 0.000000 0.000000 -18.434949 0.000000 0.000000 11.108542 0.000000 0.000000 0.000000 0.000000 0.000000 -2.401172 0.000000 
0.000000 0.000000 0.000000 0.000000 -19.179008 0.000000 0.000000 11.048906 0.000000 0.000000 1.610301 0.000000 0.000000 -2.410788 0.000000 
0.000000 0.000000 0.000000 0.000000 -20.924502 0.000000 0.000000 12.678181 0.000000 0.000000 0.814913 0.000000 0.000000 -0.814913 0.000000 
0.000000 0.000000 0.000000 0.000000 -23.096822 0.000000 0.000000 14.730936 0.000000 0.000000 0.826441 0.000000 0.000000 -0.826441 0.000000 
0.000000 0.000000 0.000000 0.000000 -23.805944 0.000000 0.000000 13.797964 0.000000 0.000000 1.642094 0.000000 0.000000 -0.822950 0.000000 
0.000000 0.000000 0.000000 0.000000 -24.880367 0.000000 0.000000 14.872387 0.000000 0.000000 0.000000 0.000000 0.000000 0.819144 0.000000 
0.000000 0.000000 0.000000 0.000000 -25.240529 0.000000 0.000000 14.570746 0.000000 0.000000 0.803976 0.000000 0.000000 -0.803976 0.000000 
0.000000 0.000000 0.000000 0.000000 -25.906508 0.000000 0.000000 15.236725 0.000000 0.000000 0.000000 0.000000 0.000000 0.000000 0.000000 
0.000000 0.000000 0.000000 0.000000 -26.565051 0.000000 0.000000 15.095521 0.000000 0.000000 1.603723 0.000000 0.000000 -1.603723 0.000000 
0.000000 0.000000 0.000000 0.000000 -27.235147 0.000000 0.000000 15.765616 0.000000 0.000000 1.603723 0.000000 0.000000 -1.603723 0.000000 
